<svg xmlns="http://www.w3.org/2000/svg"
     viewBox="0 0 64 64"
     width="64" height="64"
     role="img"
     aria-labelledby="invTitle invDesc">
  <title id="invTitle">Inventory</title>
  <desc id="invDesc">A box with barcode representing inventory management</desc>

  <!-- Gradient using user's preferred green -->
  <defs>
    <linearGradient id="g-green" x1="0" y1="0" x2="1" y2="1">
      <stop offset="0%" stop-color="#36b94c" stop-opacity="1"/>
      <stop offset="100%" stop-color="#1f8a3a" stop-opacity="1"/>
    </linearGradient>

    <!-- soft shadow for depth -->
    <filter id="shadow" x="-20%" y="-20%" width="140%" height="140%">
      <feDropShadow dx="0" dy="2" stdDeviation="2" flood-opacity="0.12"/>
    </filter>
  </defs>

  <!-- Outer stacked box (with slight shadow) -->
  <g transform="translate(6,6)">
    <rect x="2" y="10" width="44" height="28" rx="3" fill="url(#g-green)" filter="url(#shadow)"/>
    <rect x="4.5" y="12.5" width="39" height="23" rx="2" fill="none" stroke="#05421a" stroke-width="1.6"/>
  </g>

  <!-- Box lid -->
  <path d="M8 18 L32 8 L56 18" fill="none" stroke="#05421a" stroke-width="1.6" stroke-linejoin="round"/>

  <!-- Front flap line (gives box depth) -->
  <path d="M14 38 L14 46" stroke="#05421a" stroke-width="1.6" stroke-linecap="round"/>

  <!-- Barcode on the front -->
  <g transform="translate(18,22)">
    <rect x="0" y="0" width="18" height="12" rx="1" fill="#fff" opacity="0.95"/>
    <!-- bars -->
    <rect x="2"  y="2" width="1.8" height="8" fill="#222"/>
    <rect x="5"  y="2" width="1.2" height="8" fill="#222"/>
    <rect x="8"  y="2" width="2.6" height="8" fill="#222"/>
    <rect x="12" y="2" width="1.4" height="8" fill="#222"/>
    <rect x="15" y="2" width="0.9" height="8" fill="#222"/>
  </g>

  <!-- Small label/tag hanging -->
  <g transform="translate(44,34) rotate(12)">
    <rect x="0" y="0" width="12" height="8" rx="1.2" fill="#fff" stroke="#05421a" stroke-width="1"/>
    <circle cx="3" cy="4" r="0.9" fill="#05421a"/>
  </g>

  <!-- Outline accents for crispness -->
  <path d="M8 18 L32 8 L56 18 L56 44 A3 3 0 0 1 53 47 L11 47 A3 3 0 0 1 8 44 Z"
        fill="none" stroke="#05421a" stroke-width="1" stroke-linejoin="round" opacity="0.85"/>
</svg>
